<?xml version="1.0"?>
<svg xmlns="http://www.w3.org/2000/svg" id="Layer_1" enable-background="new 0 0 512 512" height="512px" viewBox="0 0 512 512" width="512px"><g><path d="m280.1 512c-83.434 0-151.43-63.724-158.911-144.6h-33.889c-8.284 0-15-6.716-15-15v-64.267c0-8.284 6.716-15 15-15h33.2v-34.267h-33.2c-8.284 0-15-6.716-15-15v-64.266c0-8.284 6.716-15 15-15h33.891c7.474-80.779 75.393-144.6 158.893-144.6 88.02 0 159.616 71.596 159.616 159.6 0 8.284-6.716 15-15 15h-64.267c-8.284 0-15-6.716-15-15 0-36.025-29.308-65.333-65.333-65.333-30.864 0-56.799 21.515-63.596 50.333h63.596c8.284 0 15 6.716 15 15v64.267c0 8.284-6.716 15-15 15h-65.333v34.267h65.333c8.284 0 15 6.716 15 15v64.266c0 8.284-6.716 15-15 15h-63.596c6.797 28.819 32.732 50.333 63.596 50.333 36.145 0 65.333-29.243 65.333-65.317 0-8.284 6.716-15.016 15-15.016h64.267c8.284 0 15 6.716 15 15 0 88.004-71.596 159.6-159.6 159.6z" data-original="#000000" class="active-path" data-old_color="#000000" fill="#FFFFFF"/><path d="m375.433 159.6h.01z" data-original="#000000" class="active-path" data-old_color="#000000" fill="#FFFFFF"/></g> </svg>
