<svg id="Layer_1" enable-background="new 0 0 512 512" height="512" viewBox="0 0 512 512" width="512" xmlns="http://www.w3.org/2000/svg"><g><g id="XMLID_1352_"><g><g id="XMLID_1299_"><g id="XMLID_1302_"><g id="XMLID_1303_"><g id="XMLID_1304_"><g id="XMLID_1305_"><g id="XMLID_1306_"><g id="XMLID_1320_"><g id="XMLID_1387_"><g id="XMLID_1388_"><g id="XMLID_1389_"><g id="XMLID_1390_"><g id="XMLID_1391_"><g id="XMLID_1392_"><g id="XMLID_1393_"><circle cx="256" cy="256" fill="#fedd55" r="256"/></g></g></g></g></g></g></g></g></g></g></g></g></g></g></g></g><path d="m512 256c0-32.46-6.056-63.503-17.076-92.078l-55.071-55.071-362.301 243.975 79.997 80.14c-.106.893-.167 27.721-.167 27.721l45.858 45.858c17.027 3.568 34.672 5.455 52.76 5.455 141.385 0 256-114.615 256-256z" fill="#ffc627"/><g><path d="m87.746 117.858h336.509v220.555h-336.509z" fill="#ff908a"/><path d="m256 117.86h168.25v220.55h-168.25z" fill="#fa4c4f"/><path d="m190.382 350.854h131.236v72.229h-131.236z" fill="#5a7784"/><path d="m256 350.85h65.62v72.23h-65.62z" fill="#436375"/><g><path d="m405.669 363.355h-299.338c-24.655 0-44.714-20.059-44.714-44.715v-181.01c0-24.655 20.059-44.714 44.714-44.714h299.338c24.655 0 44.714 20.059 44.714 44.714v181.01c0 24.657-20.059 44.715-44.714 44.715zm-299.338-235.438c-5.266 0-9.714 4.448-9.714 9.714v181.01c0 5.266 4.448 9.715 9.714 9.715h299.338c5.266 0 9.714-4.449 9.714-9.715v-181.01c0-5.266-4.448-9.714-9.714-9.714z" fill="#436375"/></g><g><path d="m405.67 92.92h-149.67v35h149.67c5.26 0 9.71 4.45 9.71 9.71v181.01c0 5.27-4.45 9.72-9.71 9.72h-149.67v35h149.67c24.65 0 44.71-20.06 44.71-44.72v-181.01c0-24.65-20.06-44.71-44.71-44.71z" fill="#274a59"/></g><path d="m354.619 460.687h-197.237v-24.999c0-12.588 10.204-22.792 22.792-22.792h151.653c12.588 0 22.792 10.204 22.792 22.792z" fill="#436375"/><path d="m354.62 435.69v25h-98.62v-47.79h75.83c12.58 0 22.79 10.2 22.79 22.79z" fill="#274a59"/><path d="m207 192.31v71.659c0 11.284 11.48 18.937 21.896 14.597l79.98-33.325c15.202-6.334 15.202-27.869 0-34.203l-79.98-33.325c-10.416-4.34-21.896 3.313-21.896 14.597z" fill="#fff"/><path d="m308.88 245.24-52.88 22.04v-78.28l52.88 22.04c15.2 6.33 15.2 27.87 0 34.2z" fill="#e9edf5"/></g></g></svg>