<svg id="Capa_1" enable-background="new 0 0 512 512" height="512" viewBox="0 0 512 512" width="512" xmlns="http://www.w3.org/2000/svg"><g><g><g><g><g><g><g><circle cx="256" cy="256" fill="#b1d3fd" r="256"/></g></g></g></g></g></g><g><path d="m512 256c0-10.656-.651-21.161-1.916-31.475l-102.646-102.646-294.551 277.378 110.712 110.711c10.611 1.341 21.425 2.032 32.401 2.032 141.385 0 256-114.615 256-256z" fill="#80affa"/></g><g><path d="m112.815 399.185c-14.209-14.209-14.209-37.246 0-51.455l114.986-114.986 51.455 51.455-114.986 114.986c-14.209 14.209-37.246 14.209-51.455 0z" fill="#e06a24"/></g><g><path d="m112.726 399.092c.03.031.058.063.089.093 14.209 14.209 37.246 14.209 51.455 0l114.986-114.986-25.818-25.818z" fill="#d24611"/></g><g><circle cx="307.955" cy="204.045" fill="#575a65" r="129.019"/></g><g><path d="m399.185 112.815c-.03-.031-.062-.06-.092-.09l-182.458 182.458c.03.031.059.062.09.092 50.385 50.385 132.076 50.385 182.461 0 50.384-50.385 50.384-132.075-.001-182.46z" fill="#383c42"/></g><g><ellipse cx="307.955" cy="204.045" fill="#fff" rx="90.813" ry="90.813" transform="matrix(.707 -.707 .707 .707 -54.084 277.52)"/></g><g><path d="m372.076 139.742-128.424 128.425c.03.031.058.063.089.093 35.465 35.465 92.964 35.465 128.429 0s35.465-92.965 0-128.429c-.031-.031-.063-.059-.094-.089z" fill="#e9ecf4"/></g><g><path d="m307.955 132.261 21.736 44.042 48.604 7.063-35.17 34.282 8.302 48.408-43.472-22.855-43.473 22.855 8.303-48.408-35.17-34.282 48.604-7.063z" fill="#f1cc30"/></g><g><path d="m334.776 177.042-66.418 66.418-3.876 22.596 43.473-22.855 43.472 22.855-8.302-48.408 35.17-34.282z" fill="#ecb931"/></g></g></svg>