<?xml version="1.0" encoding="iso-8859-1"?>
<!-- Generator: Adobe Illustrator 19.0.0, SVG Export Plug-In . SVG Version: 6.00 Build 0)  -->
<svg version="1.1" id="Capa_1" xmlns="http://www.w3.org/2000/svg" xmlns:xlink="http://www.w3.org/1999/xlink" x="0px" y="0px"
	 viewBox="0 0 56.48 56.48" style="enable-background:new 0 0 56.48 56.48;" xml:space="preserve">
<g>
	<g>
		<path d="M45.78,26.135c-0.153-0.063-0.313-0.095-0.479-0.111c-0.172-0.018-0.345-0.016-0.518-0.016c-0.126,0-0.126,0-0.148,0.125
			c-0.082,0.438-0.162,0.876-0.244,1.314c-0.029,0.162-0.061,0.325-0.09,0.487c-0.016,0.08-0.016,0.08,0.068,0.08
			c0.111,0,0.223,0,0.333,0c0.151,0,0.304,0.004,0.453-0.018c0.187-0.021,0.369-0.062,0.54-0.14c0.23-0.109,0.398-0.274,0.496-0.513
			c0.062-0.156,0.078-0.319,0.074-0.486C46.262,26.534,46.08,26.262,45.78,26.135z"/>
	</g>
</g>
<g>
	<g>
		<path d="M17.479,26.19c-0.019,0-0.038,0-0.058,0c-0.379,0-0.759,0-1.139,0c-0.8,0-1.6,0-2.4,0c-0.086,0-0.086,0.002-0.101,0.086
			c-0.065,0.371-0.129,0.742-0.193,1.111c-0.017,0.099-0.017,0.099,0.086,0.099c0.706,0,1.41,0,2.115,0c0.021,0,0.043,0,0.065,0
			c0.053,0.003,0.054,0.003,0.046,0.055c-0.005,0.036-0.012,0.069-0.018,0.104c-0.074,0.41-0.147,0.82-0.222,1.229
			c-0.021,0.11-0.022,0.11-0.131,0.11c-0.724,0-1.448,0-2.172,0c-0.083,0-0.082,0-0.096,0.08c-0.02,0.106-0.04,0.213-0.06,0.319
			c-0.054,0.297-0.109,0.596-0.164,0.896c0.027,0.014,0.049,0.012,0.071,0.012c1.204,0,2.408,0,3.612,0
			c0.075,0,0.075-0.002,0.088-0.074c0.071-0.392,0.143-0.781,0.214-1.174c0.08-0.428,0.16-0.854,0.238-1.283
			c0.07-0.378,0.14-0.757,0.208-1.133c0.022-0.123,0.046-0.246,0.066-0.368C17.55,26.195,17.546,26.192,17.479,26.19z"/>
	</g>
</g>
<g>
	<g>
		<path d="M50.207,29.984c-0.511-0.001-0.916,0.406-0.915,0.912c0.003,0.548,0.462,0.91,0.91,0.912
			c0.509,0.002,0.931-0.443,0.911-0.914C51.129,30.429,50.731,29.984,50.207,29.984z M50.659,31.471
			c-0.028,0-0.038-0.027-0.052-0.047c-0.078-0.104-0.151-0.21-0.229-0.314c-0.086-0.116-0.193-0.159-0.332-0.128
			c-0.036,0.008-0.079-0.011-0.101,0.018c-0.023,0.029-0.003,0.07-0.002,0.104c0.003,0.113,0.01,0.227,0.015,0.34
			c0.002,0.06,0.004,0.068-0.064,0.07c-0.096,0.004-0.098,0.006-0.102-0.092c-0.008-0.137-0.012-0.275-0.019-0.414
			c-0.008-0.178-0.018-0.353-0.028-0.533c-0.001-0.01-0.003-0.02-0.003-0.031c-0.006-0.114-0.006-0.114,0.106-0.119
			c0.179-0.006,0.356-0.026,0.535-0.02c0.085,0,0.166,0.02,0.229,0.084c0.167,0.168,0.109,0.449-0.113,0.533
			c-0.022,0.007-0.047,0.011-0.077,0.024c0.188,0.135,0.286,0.329,0.42,0.505C50.775,31.489,50.715,31.471,50.659,31.471z"/>
	</g>
</g>
<g>
	<g>
		<path d="M55.026,9.939H1.454C0.65,9.939,0,10.59,0,11.393v33.694c0,0.803,0.65,1.455,1.454,1.455h53.572
			c0.804,0,1.454-0.651,1.454-1.454V11.393C56.48,10.591,55.83,9.939,55.026,9.939z M48.59,27.45
			c-0.183,0.626-0.572,1.07-1.168,1.334c-0.217,0.094-0.446,0.151-0.676,0.198c-0.093,0.017-0.094,0.019-0.06,0.107
			c0.276,0.733,0.552,1.467,0.827,2.203c0.09,0.231,0.175,0.467,0.262,0.7c-0.826,0-1.649,0-2.475,0
			c-0.002-0.011-0.004-0.022-0.006-0.032c-0.182-0.615-0.365-1.23-0.548-1.844c-0.167-0.563-0.335-1.126-0.503-1.688
			c-0.004-0.018-0.001-0.041-0.029-0.043c-0.035,0.2-0.072,0.399-0.108,0.599c-0.097,0.517-0.19,1.03-0.286,1.547
			c-0.068,0.375-0.139,0.751-0.205,1.124c-0.02,0.113-0.05,0.223-0.055,0.338c-7.745,0-15.49,0-23.236,0
			c0.027-0.15,0.053-0.299,0.081-0.447c0.078-0.43,0.156-0.856,0.236-1.285c0.116-0.627,0.232-1.256,0.349-1.883
			c0.118-0.638,0.236-1.276,0.354-1.914c0.015-0.077,0.027-0.155,0.04-0.233c0.004-0.029-0.007-0.047-0.04-0.043
			c-0.011,0-0.021-0.002-0.032-0.002c-0.407,0-0.813,0-1.22,0c-0.075,0-0.07,0.003-0.082,0.069c-0.074,0.404-0.15,0.808-0.225,1.213
			c-0.078,0.424-0.156,0.851-0.235,1.276c-0.089,0.479-0.179,0.963-0.268,1.443c-0.09,0.487-0.181,0.974-0.269,1.461
			c-0.02,0.115-0.051,0.228-0.057,0.345c-2.951,0-5.902,0-8.852,0c0.002-0.033-0.014-0.065-0.024-0.095
			c-0.141-0.411-0.282-0.819-0.423-1.229c-0.271-0.786-0.542-1.571-0.813-2.354c-0.11-0.32-0.221-0.641-0.332-0.96
			c-0.004-0.014-0.003-0.034-0.03-0.032c-0.011,0.069-0.024,0.137-0.037,0.206c-0.083,0.474-0.166,0.946-0.25,1.423
			c-0.089,0.505-0.181,1.01-0.271,1.516c-0.083,0.467-0.165,0.936-0.248,1.404c-0.007,0.04-0.02,0.079-0.012,0.121
			c-0.806,0-1.611,0-2.416,0c-0.012,0-0.023-0.004-0.033,0c-0.051,0.013-0.04-0.026-0.041-0.05c0.019-0.016,0.026-0.04,0.031-0.065
			c0.076-0.414,0.152-0.826,0.229-1.242c0.111-0.603,0.221-1.207,0.332-1.81C5.883,28.195,6,27.568,6.117,26.935
			c0.117-0.625,0.231-1.253,0.347-1.88c0.036-0.193,0.074-0.388,0.111-0.581c0.862,0,1.725,0,2.587,0
			c0.007,0.023,0.012,0.048,0.02,0.069c0.242,0.662,0.485,1.321,0.726,1.983c0.299,0.824,0.599,1.649,0.899,2.471
			c0.005,0.011,0.005,0.032,0.031,0.031c0.005-0.025,0.011-0.048,0.015-0.072c0.068-0.371,0.137-0.744,0.205-1.115
			c0.083-0.457,0.166-0.915,0.25-1.373c0.096-0.519,0.191-1.042,0.286-1.563c0.026-0.144,0.058-0.285,0.074-0.431
			c4.942,0,9.883,0,14.824,0c-0.003,0.024-0.003,0.048-0.007,0.072c-0.067,0.376-0.136,0.75-0.204,1.125
			c-0.028,0.151-0.057,0.303-0.082,0.455c-0.007,0.043-0.025,0.065-0.068,0.061c-0.02-0.004-0.039-0.002-0.058-0.002
			c-0.638,0-1.274,0-1.912,0c-0.095,0-0.19,0.003-0.284,0c-0.046-0.002-0.062,0.017-0.069,0.059c-0.07,0.386-0.141,0.77-0.211,1.157
			C23.578,27.5,23.58,27.5,23.682,27.5c0.692,0,1.382,0,2.074,0c0.031,0,0.064-0.008,0.094,0.01
			c0.001,0.004,0.002,0.007,0.001,0.009c-0.085,0.472-0.171,0.941-0.255,1.414c-0.006,0.037-0.024,0.051-0.06,0.048
			c-0.022-0.002-0.043,0-0.065,0c-0.694,0-1.389,0-2.082,0c-0.086,0-0.086,0-0.1,0.079c-0.067,0.371-0.133,0.744-0.202,1.117
			c-0.025,0.134-0.013,0.108,0.089,0.108c1.193,0.002,2.386,0.002,3.578,0.002c0.017,0,0.033-0.002,0.049,0
			c0.038,0.002,0.057-0.009,0.064-0.052c0.016-0.105,0.039-0.213,0.059-0.319c0.088-0.479,0.176-0.957,0.265-1.436
			c0.083-0.455,0.167-0.91,0.25-1.365c0.08-0.431,0.159-0.86,0.239-1.292c0.062-0.338,0.126-0.675,0.187-1.014
			c0.019-0.11,0.05-0.221,0.055-0.335c0.83,0,1.66,0,2.49,0c0.01,0.029,0,0.061-0.005,0.088c-0.069,0.381-0.14,0.76-0.211,1.141
			c-0.132,0.712-0.266,1.425-0.399,2.137c-0.129,0.691-0.258,1.382-0.386,2.074c-0.012,0.071-0.012,0.074,0.06,0.074
			c0.518,0,1.035,0,1.553,0c0.062,0,0.064-0.002,0.076-0.065c0.106-0.576,0.214-1.153,0.32-1.73c0.109-0.599,0.219-1.196,0.33-1.795
			c0.117-0.642,0.236-1.28,0.354-1.922c0.828,0,1.658,0,2.488,0c0,0.019,0,0.038-0.002,0.057c-0.037,0.204-0.076,0.41-0.115,0.614
			c-0.1,0.542-0.202,1.083-0.303,1.627c-0.096,0.512-0.189,1.026-0.285,1.539c-0.1,0.535-0.198,1.07-0.299,1.603
			c-0.013,0.069-0.01,0.074,0.062,0.074c0.53,0,1.063,0,1.593,0c0.065,0,0.067-0.001,0.079-0.064
			c0.07-0.389,0.143-0.776,0.215-1.166c0.094-0.515,0.189-1.029,0.284-1.545c0.08-0.432,0.158-0.863,0.237-1.292
			c0.068-0.369,0.14-0.735,0.203-1.103c0.022-0.113,0.055-0.226,0.056-0.343c1.59,0,3.18,0,4.769,0
			c0.002,0.027-0.004,0.055-0.009,0.08c-0.057,0.312-0.114,0.623-0.172,0.934c-0.038,0.213-0.077,0.425-0.114,0.639
			c-0.007,0.041-0.023,0.065-0.068,0.061c-0.021-0.004-0.043-0.002-0.065-0.002c-0.704,0-1.409,0-2.114,0.002
			c-0.127,0-0.102-0.016-0.125,0.104c-0.07,0.367-0.136,0.735-0.205,1.101c-0.018,0.096-0.019,0.096,0.077,0.096
			c0.564,0,1.128,0,1.692,0c0.141,0,0.281-0.002,0.423,0c0.058,0,0.06,0.001,0.049,0.06c-0.079,0.443-0.163,0.889-0.241,1.332
			c-0.02,0.112-0.01,0.101-0.123,0.101c-0.256,0-0.511,0-0.766,0c-0.441,0-0.884,0-1.326,0c-0.076,0-0.076,0-0.091,0.077
			c-0.058,0.312-0.116,0.627-0.174,0.939c-0.017,0.091-0.033,0.185-0.05,0.278c0.031,0.014,0.059,0.012,0.084,0.012
			c1.2,0,2.398,0,3.596,0c0.08,0,0.081-0.002,0.096-0.084c0.048-0.27,0.099-0.542,0.148-0.813c0.118-0.636,0.237-1.27,0.354-1.907
			c0.131-0.716,0.264-1.43,0.395-2.146c0.053-0.288,0.107-0.574,0.16-0.861c1.091,0,2.181,0,3.271,0
			c0.046,0.027,0.097,0.007,0.146,0.011c0.109,0.013,0.22,0.023,0.33,0.035c0.375,0.04,0.743,0.113,1.097,0.249
			c0.336,0.13,0.64,0.306,0.882,0.577c0.2,0.221,0.329,0.476,0.393,0.763c0.049,0.219,0.062,0.437,0.054,0.66
			C48.682,27.007,48.653,27.232,48.59,27.45z M51.305,31.036c-0.022,0.039-0.011,0.085-0.022,0.127
			c-0.091,0.346-0.298,0.592-0.62,0.745c-0.086,0.041-0.181,0.056-0.268,0.09c-0.131,0-0.26,0-0.391,0
			c-0.047-0.029-0.101-0.03-0.152-0.05c-0.424-0.161-0.68-0.459-0.745-0.91c-0.084-0.586,0.321-1.131,0.899-1.234
			c0.578-0.103,1.113,0.246,1.269,0.791c0.013,0.048,0.005,0.102,0.03,0.149C51.305,30.843,51.305,30.94,51.305,31.036z"/>
	</g>
</g>
<g>
	<g>
		<path d="M50.402,30.453c-0.047-0.014-0.096-0.022-0.145-0.014c-0.089,0.015-0.179,0.011-0.268,0.015
			c-0.08,0.004-0.089,0.007-0.078,0.081c0.014,0.082,0.006,0.162,0.014,0.242c0.005,0.06,0.003,0.062,0.064,0.062
			c0.007,0,0.017,0,0.025,0c0.099-0.013,0.199-0.008,0.297-0.017c0.045-0.005,0.086-0.015,0.125-0.036
			c0.07-0.037,0.102-0.097,0.103-0.171C50.535,30.538,50.48,30.474,50.402,30.453z"/>
	</g>
</g>
<g>
</g>
<g>
</g>
<g>
</g>
<g>
</g>
<g>
</g>
<g>
</g>
<g>
</g>
<g>
</g>
<g>
</g>
<g>
</g>
<g>
</g>
<g>
</g>
<g>
</g>
<g>
</g>
<g>
</g>
</svg>
