<?xml version="1.0" encoding="iso-8859-1"?>
<!-- Generator: Adobe Illustrator 19.0.0, SVG Export Plug-In . SVG Version: 6.00 Build 0)  -->
<svg version="1.1" id="Capa_1" xmlns="http://www.w3.org/2000/svg" xmlns:xlink="http://www.w3.org/1999/xlink" x="0px" y="0px"
	 viewBox="0 0 512 512" style="enable-background:new 0 0 512 512;" xml:space="preserve">
<path style="fill:#32D736;" d="M312.7,334.699c-0.601,0-1.201-0.3-1.8-0.3c-18.6-1.8-36.901-2.399-54.901-2.399
	c-90.3-0.3-170.4,19.2-205.8,51.599C34.3,398.299,31,412.4,31,422c0,58.5,115.8,90,225,90s225-31.5,225-90
	C481,369.5,390.7,342.199,312.7,334.699z"/>
<path style="fill:#10BB67;" d="M481,422c0,58.5-115.8,90-225,90V332c17.999,0,36.301,0.599,54.901,2.399c0.599,0,1.199,0.3,1.8,0.3
	C390.7,342.199,481,369.5,481,422z"/>
<path style="fill:#FD4E26;" d="M256,0C165.099,0,91,74.099,91,165c0,34.799,10.8,68.099,30.901,96.299l121.8,169.2
	c2.999,3.9,7.5,6.301,12.299,6.301c4.799,0,9.3-2.401,12.299-6.301l121.8-169.2C410.2,233.099,421,199.799,421,165
	C421,74.099,346.901,0,256,0z"/>
<path style="fill:#FD3018;" d="M421,165c0,34.799-10.8,68.099-30.901,96.299l-121.8,169.2c-2.999,3.9-7.5,6.301-12.299,6.301V0
	C346.901,0,421,74.099,421,165z"/>
<path style="fill:#FEDB41;" d="M301,195c0,18.9-12.001,35.7-29.7,42.299H271V255c0,8.399-6.599,15-15,15s-15-6.601-15-15v-17.701
	c-9.901-3.3-19.2-9.6-27.299-19.499c-5.402-6.301-4.501-15.601,1.8-21c6.299-5.4,15.599-4.501,20.999,1.8
	c6.301,7.5,13.2,11.4,19.501,11.4c1.8,0,3.3-0.3,5.099-0.901c6-2.1,9.901-7.8,9.901-14.099c0-8.401-6.599-15-15-15
	c-24.901,0-45-20.101-45-45c0-18.001,10.8-34.501,27.599-41.4c0.601-0.3,1.5-0.3,2.401-0.601V75c0-8.401,6.599-15,15-15
	s15,6.599,15,15v17.999c7.8,2.701,15.3,6.601,22.2,13.2c6,5.7,6,15.3,0.3,21.301c-5.7,6.001-15.3,6-21.301,0.3
	c-5.4-5.402-11.1-8.101-16.199-7.8c-2.1,0-3.9,0.3-5.7,1.199C244.6,123.6,241,129,241,135c0,8.399,6.599,15,15,15
	C280.901,150,301,170.099,301,195z"/>
<g>
	<path style="fill:#FFCC33;" d="M301,195c0,18.9-12.001,35.7-29.7,42.299H271V255c0,8.399-6.599,15-15,15v-60
		c1.8,0,3.3-0.3,5.099-0.901c6-2.1,9.901-7.8,9.901-14.099c0-8.401-6.599-15-15-15v-30C280.901,150,301,170.099,301,195z"/>
	<path style="fill:#FFCC33;" d="M272.199,127.8c-5.4-5.402-11.1-8.101-16.199-7.8V60c8.401,0,15,6.599,15,15v17.999
		c7.8,2.701,15.3,6.601,22.2,13.2c6,5.7,6,15.3,0.3,21.301C287.8,133.501,278.2,133.5,272.199,127.8z"/>
</g>
<g>
</g>
<g>
</g>
<g>
</g>
<g>
</g>
<g>
</g>
<g>
</g>
<g>
</g>
<g>
</g>
<g>
</g>
<g>
</g>
<g>
</g>
<g>
</g>
<g>
</g>
<g>
</g>
<g>
</g>
</svg>
