<?xml version="1.0"?>
<svg xmlns="http://www.w3.org/2000/svg" height="512px" viewBox="0 0 512 512" width="512px" class=""><g><g><g><circle cx="256" cy="256" fill="#d80027" r="240" data-original="#D80027" class="active-path" style="fill:#DB2828" data-old_color="#d80027"/><path d="m208.538 344v-176l145.924 88z" fill="#e0e0e2" data-original="#E0E0E2"/></g><g><g><path d="m431.36 80.64a248 248 0 1 0 -350.72 350.72 248 248 0 1 0 350.72-350.72zm-11.31 339.41a232 232 0 0 1 -328.1-328.1 232 232 0 0 1 328.1 328.1z" data-original="#000000" class="" style="fill:#000000"/><path d="m176 464.7a7.982 7.982 0 0 1 -2.963-.571 224.077 224.077 0 0 1 -141.037-208.129 8 8 0 0 1 16 0 208.073 208.073 0 0 0 130.965 193.271 8 8 0 0 1 -2.965 15.429z" data-original="#000000" class="" style="fill:#000000"/><path d="m216.009 476.305a8.072 8.072 0 0 1 -1.482-.138c-5.557-1.041-11.141-2.309-16.595-3.77a8 8 0 1 1 4.136-15.455c5.063 1.355 10.245 2.533 15.405 3.5a8 8 0 0 1 -1.464 15.865z" data-original="#000000" class="" style="fill:#000000"/></g><path d="m208.538 352a8 8 0 0 1 -8-8v-176a8 8 0 0 1 12.131-6.851l145.924 88a8 8 0 0 1 0 13.7l-145.924 88a8 8 0 0 1 -4.131 1.151zm8-169.833v147.666l122.433-73.833z" data-original="#000000" class="" style="fill:#000000"/></g></g></g> </svg>
