<?xml version="1.0" encoding="iso-8859-1"?>
<!-- Generator: Adobe Illustrator 19.0.0, SVG Export Plug-In . SVG Version: 6.00 Build 0)  -->
<svg version="1.1" id="Capa_1" xmlns="http://www.w3.org/2000/svg" xmlns:xlink="http://www.w3.org/1999/xlink" x="0px" y="0px"
	 viewBox="0 0 512 512" style="enable-background:new 0 0 512 512;" xml:space="preserve">
<g>
	<rect x="0" y="70.621" style="fill:#2FA8CC;" width="512" height="308.966"/>
	<path style="fill:#3F5C6C;" d="M229.517,441.379h-90.342c-8.906-0.002-16.418,6.629-17.523,15.466l-4.414,35.31
		c-0.628,5.026,0.932,10.079,4.285,13.875c3.352,3.796,8.173,5.97,13.238,5.969h242.476c5.065,0.001,9.886-2.173,13.238-5.969
		c3.352-3.796,4.913-8.85,4.285-13.875l-4.414-35.31c-1.104-8.837-8.617-15.468-17.523-15.466H229.517z"/>
	<path style="fill:#41767F;" d="M229.517,388.414h52.966v79.448c0,4.875-3.952,8.828-8.828,8.828h-35.31
		c-4.875,0-8.828-3.952-8.828-8.828V388.414z"/>
	<g>
		<path style="fill:#3F5C6C;" d="M512,361.931v17.655c0,14.626-11.857,26.483-26.483,26.483H26.483
			C11.857,406.069,0,394.212,0,379.586v-17.655H512z"/>
		<path style="fill:#3F5C6C;" d="M512,70.621v17.655H0V70.621c0-14.626,11.857-26.483,26.483-26.483h459.034
			C500.143,44.138,512,55.995,512,70.621z"/>
	</g>
	<rect x="123.586" y="88.276" style="fill:#E57E25;" width="264.828" height="150.069"/>
	<g>
		<path style="fill:#F29C1F;" d="M388.414,61.793v26.483H123.586V61.793C123.586,27.666,151.252,0,185.379,0h141.241
			C360.748,0,388.414,27.666,388.414,61.793z"/>
		<rect x="123.586" y="238.345" style="fill:#F29C1F;" width="264.828" height="123.586"/>
	</g>
	<path style="fill:#D25627;" d="M414.897,361.931H97.103c-4.875,0-8.828-3.952-8.828-8.828s3.952-8.828,8.828-8.828h317.793
		c4.875,0,8.828,3.952,8.828,8.828S419.772,361.931,414.897,361.931z"/>
	<path style="fill:#2C2F38;" d="M450.207,229.517h-26.483c-4.875,0-8.828-3.952-8.828-8.828s3.952-8.828,8.828-8.828h26.483v-52.966
		c0-4.875,3.952-8.828,8.828-8.828s8.828,3.952,8.828,8.828v52.966C467.862,221.613,459.958,229.517,450.207,229.517z"/>
	<circle style="fill:#E64C3C;" cx="459.034" cy="141.241" r="26.483"/>
	<g>
		<path style="fill:#D25627;" d="M326.621,317.793c-4.875,0-8.828-3.952-8.828-8.828V291.31c0-4.875,3.952-8.828,8.828-8.828
			s8.828,3.952,8.828,8.828v17.655C335.448,313.841,331.496,317.793,326.621,317.793z"/>
		<path style="fill:#D25627;" d="M167.724,282.483h114.759v8.828c0,14.626-11.857,26.483-26.483,26.483h-61.793
			c-14.626,0-26.483-11.857-26.483-26.483V282.483z"/>
		<path style="fill:#D25627;" d="M344.276,88.276H167.724V70.621c0-14.626,11.857-26.483,26.483-26.483h123.586
			c14.626,0,26.483,11.857,26.483,26.483V88.276z"/>
	</g>
	<rect x="220.69" y="123.586" style="fill:#D1D4D1;" width="61.793" height="79.448"/>
	<g>
		<path style="fill:#ECF0F1;" d="M220.69,123.586v79.448h-52.966c-4.875,0-8.828-3.952-8.828-8.828v-61.793
			c0-4.875,3.952-8.828,8.828-8.828H220.69z"/>
		<path style="fill:#ECF0F1;" d="M344.276,132.414v61.793c0,4.875-3.952,8.828-8.828,8.828h-52.966v-79.448h52.966
			C340.324,123.586,344.276,127.538,344.276,132.414z"/>
	</g>
	<path style="fill:#D25627;" d="M388.414,185.379h26.483c4.875,0,8.828,3.952,8.828,8.828v52.966c0,4.875-3.952,8.828-8.828,8.828
		h-26.483V185.379z"/>
</g>
<g>
</g>
<g>
</g>
<g>
</g>
<g>
</g>
<g>
</g>
<g>
</g>
<g>
</g>
<g>
</g>
<g>
</g>
<g>
</g>
<g>
</g>
<g>
</g>
<g>
</g>
<g>
</g>
<g>
</g>
</svg>
